<?xml version="1.0" encoding="utf-8"?>
<!-- Generator: Adobe Illustrator 22.0.0, SVG Export Plug-In . SVG Version: 6.00 Build 0)  -->
<svg version="1.1" id="Layer_1" xmlns="http://www.w3.org/2000/svg" xmlns:xlink="http://www.w3.org/1999/xlink" x="0px" y="0px"
	 viewBox="0 0 595.3 841.9" style="enable-background:new 0 0 595.3 841.9;" xml:space="preserve">
<style type="text/css">
	.st0{fill:#055D89;}
	.st1{fill:none;}
	.st2{fill:#065C88;}
	.st3{font-family:'Aldrich';}
	.st4{font-size:74.4513px;}
	.st5{letter-spacing:6;}
</style>
<g>
	<g>
		<g>
			<path class="st0" d="M298.4,483.7c-0.5,0-1-0.1-1.4-0.4c-32.8-17.7-57.2-49.3-72.6-93.9c-12.1-35.1-14.9-68.2-15.8-79.1
				c-0.1-1.3-0.2-2.4-0.3-3.1c-0.2-2.1,1.3-4,3.4-4.4c44.4-7,73.5-27.7,84-36.3c1.1-0.9,2.2-1.8,4-1c0.4,0.2,0.6,0.3,0.9,0.6
				c5.5,4.8,35.6,29,84.5,36.7c2.1,0.3,3.6,2.3,3.4,4.4c-0.1,0.7-0.2,1.7-0.3,3.1c-1.1,13.4-4.5,54.1-21.8,94.7
				c-0.6,1.5-2.4,2.2-3.9,1.6s-2.2-2.4-1.6-3.9c16.9-39.7,20.2-79.7,21.3-92.9c0-0.5,0.1-1,0.1-1.4c-45.4-7.6-74.2-28.3-84.1-36.4
				c-11.5,9.2-40.6,29.2-84,36.4c0,0.4,0.1,0.9,0.1,1.4c6.8,81.8,36.6,141.2,83.9,167.6c20.6-11.5,37.9-29,51.4-52.2
				c0.8-1.4,2.6-1.9,4-1.1s1.9,2.6,1.1,4c-14.4,24.7-32.9,43.3-55.1,55.2C299.4,483.6,298.9,483.7,298.4,483.7z"/>
		</g>
		<g>
			<path class="st0" d="M355.7,423.5c-0.5,0-0.9-0.1-1.4-0.3c-1.4-0.8-2-2.5-1.2-4c1.7-3.2,3.4-6.6,5-10.1c0.7-1.5,2.4-2.1,3.9-1.4
				s2.1,2.4,1.4,3.9c-1.7,3.6-3.4,7.1-5.2,10.4C357.8,422.9,356.8,423.5,355.7,423.5z"/>
		</g>
	</g>
	<g>
		<g>
			<path class="st0" d="M257.3,365.5c-7.2,0-13-5.8-13-13c0-7.2,5.8-13,13-13s13,5.8,13,13C270.3,359.7,264.4,365.5,257.3,365.5z
				 M257.3,345.4c-3.9,0-7.1,3.2-7.1,7.1s3.2,7.1,7.1,7.1s7.1-3.2,7.1-7.1S261.2,345.4,257.3,345.4z"/>
		</g>
		<g>
			<path class="st0" d="M295.5,433.9c-6.7,0-12.2-5.5-12.2-12.2s5.5-12.2,12.2-12.2s12.2,5.5,12.2,12.2S302.2,433.9,295.5,433.9z
				 M295.5,415.4c-3.5,0-6.3,2.8-6.3,6.3s2.8,6.3,6.3,6.3s6.3-2.8,6.3-6.3C301.8,418.2,299,415.4,295.5,415.4z"/>
		</g>
		<g>
			<path class="st0" d="M309.8,332.3c-7.9,0-14.3-6.4-14.3-14.3c0-7.9,6.4-14.3,14.3-14.3s14.3,6.4,14.3,14.3
				C324.1,325.9,317.7,332.3,309.8,332.3z M309.8,309.5c-4.7,0-8.5,3.8-8.5,8.5c0,4.7,3.8,8.5,8.5,8.5s8.5-3.8,8.5-8.5
				C318.3,313.3,314.5,309.5,309.8,309.5z"/>
		</g>
		<g>
			<path class="st0" d="M336.2,387.4c-10.9,0-19.8-8.9-19.8-19.8s8.9-19.8,19.8-19.8s19.8,8.9,19.8,19.8S347.1,387.4,336.2,387.4z
				 M336.2,353.7c-7.7,0-13.9,6.2-13.9,13.9s6.2,13.9,13.9,13.9c7.7,0,13.9-6.2,13.9-13.9S343.9,353.7,336.2,353.7z"/>
		</g>
		<g>
			<path class="st0" d="M257.3,345.4c-0.1,0-0.2,0-0.2,0c-1.6-0.1-2.8-1.5-2.7-3.2l4.2-51.5c0.1-1.6,1.6-2.8,3.2-2.7
				s2.8,1.5,2.7,3.2l-4.2,51.5C260.1,344.2,258.8,345.4,257.3,345.4z"/>
		</g>
		<g>
			<path class="st0" d="M247.2,351.3c-0.4,0-0.9-0.1-1.3-0.3l-33.3-16.5c-1.5-0.7-2-2.5-1.3-3.9c0.7-1.5,2.5-2,3.9-1.3l33.3,16.5
				c1.5,0.7,2,2.5,1.3,3.9C249.3,350.7,248.3,351.3,247.2,351.3z"/>
		</g>
		<g>
			<path class="st0" d="M265.7,349.9c-0.9,0-1.9-0.4-2.4-1.3c-0.9-1.3-0.6-3.2,0.8-4.1l34.1-23.4c1.3-0.9,3.2-0.6,4.1,0.8
				c0.9,1.3,0.6,3.2-0.8,4.1l-34.2,23.4C266.8,349.7,266.2,349.9,265.7,349.9z"/>
		</g>
		<g>
			<path class="st0" d="M316.1,311.3c-0.6,0-1.2-0.2-1.7-0.6c-1.3-1-1.6-2.8-0.7-4.1l14.3-19.7c1-1.3,2.8-1.6,4.1-0.7
				c1.3,1,1.6,2.8,0.7,4.1l-14.4,19.8C317.9,310.9,317,311.3,316.1,311.3z"/>
		</g>
		<g>
			<path class="st0" d="M328.7,355.4c-1.1,0-2.1-0.6-2.6-1.6L313.2,329c-0.7-1.4-0.2-3.2,1.3-4c1.4-0.7,3.2-0.2,4,1.3l12.9,24.9
				c0.7,1.4,0.2,3.2-1.3,4C329.6,355.3,329.1,355.4,328.7,355.4z"/>
		</g>
		<g>
			<path class="st0" d="M351.1,362.7c-1.1,0-2.2-0.7-2.7-1.8c-0.6-1.5,0.1-3.2,1.6-3.8l29.2-12.3c1.5-0.6,3.2,0.1,3.8,1.6
				c0.6,1.5-0.1,3.2-1.6,3.8l-29.2,12.2C351.9,362.6,351.5,362.7,351.1,362.7z"/>
		</g>
		<g>
			<path class="st0" d="M302.3,418.4c-0.6,0-1.2-0.2-1.7-0.5c-1.3-0.9-1.6-2.8-0.7-4.1l24-34.3c0.9-1.3,2.8-1.6,4.1-0.7
				c1.3,0.9,1.6,2.8,0.7,4.1l-24,34.3C304.1,417.9,303.2,418.4,302.3,418.4z"/>
		</g>
		<g>
			<path class="st0" d="M339.2,449c-0.5,0-1-0.1-1.5-0.4l-34.4-19.7c-1.4-0.8-1.9-2.6-1.1-4s2.6-1.9,4-1.1l34.4,19.7
				c1.4,0.8,1.9,2.6,1.1,4C341.2,448.4,340.2,449,339.2,449z"/>
		</g>
		<g>
			<path class="st0" d="M259.4,449.4c-0.9,0-1.9-0.5-2.4-1.3c-0.9-1.3-0.6-3.2,0.8-4.1l28.6-19.4c1.3-0.9,3.2-0.6,4.1,0.8
				c0.9,1.3,0.6,3.2-0.8,4.1l-28.6,19.4C260.5,449.3,260,449.4,259.4,449.4z"/>
		</g>
		<g>
			<path class="st0" d="M289.9,417.3c-1.1,0-2.1-0.6-2.6-1.6l-7.2-13.7c-0.8-1.4-0.2-3.2,1.2-4c1.4-0.8,3.2-0.2,4,1.2l7.2,13.7
				c0.8,1.4,0.2,3.2-1.2,4C290.8,417.2,290.3,417.3,289.9,417.3z"/>
		</g>
		<g>
			<path class="st0" d="M279.3,397.3c-1.1,0-2.2-0.6-2.7-1.7c-2.1-4.5-4.5-8.9-6.6-12.6c-0.8-1.4-0.3-3.2,1.1-4s3.2-0.3,4,1.1
				c2.1,3.8,4.6,8.4,6.8,13c0.7,1.5,0.1,3.2-1.4,3.9C280.1,397.2,279.7,397.3,279.3,397.3z"/>
		</g>
		<g>
			<path class="st0" d="M269,377.9c-1,0-2-0.5-2.6-1.5c-2.2-4-4.8-8.8-7.1-13.8c-0.7-1.5,0-3.2,1.4-3.9c1.5-0.7,3.2,0,3.9,1.4
				c2.2,4.8,4.8,9.5,6.9,13.4c0.8,1.4,0.3,3.2-1.1,4C270,377.8,269.5,377.9,269,377.9z"/>
		</g>
	</g>
</g>
<rect x="127.4" y="411.7" class="st1" width="342" height="90"/>
<text transform="matrix(1 0 0 1 147.1617 576.7051)" class="st2 st3 st4 st5">SOLTIX</text>
</svg>
